<svg width="729" height="448" viewBox="0 0 729 448" fill="none" xmlns="http://www.w3.org/2000/svg">
<path d="M257.128 318.375H200.13V451.674H257.128V318.375Z" fill="#333333"/>
<path d="M226.038 311.649H200.13V319.237H226.038V311.649Z" fill="#333333"/>
<path d="M215.157 307.338H200.13V311.649H215.157V307.338Z" fill="#333333"/>
<path opacity="0.06" d="M233.293 327.687H223.966V334.584H233.293V327.687Z" fill="white"/>
<path opacity="0.12" d="M233.293 344.759H223.966V351.656H233.293V344.759Z" fill="white"/>
<path opacity="0.19" d="M233.293 378.903H223.966V385.8H233.293V378.903Z" fill="white"/>
<path opacity="0.14" d="M233.293 413.047H223.966V419.944H233.293V413.047Z" fill="white"/>
<path opacity="0.1" d="M233.293 430.119H223.966V437.016H233.293V430.119Z" fill="white"/>
<path d="M114.116 332.859H36.0461V404.251H114.116V332.859Z" fill="#333333"/>
<path d="M101.853 326.479H48.482V357.174H101.853V326.479Z" fill="#333333"/>
<path d="M119.815 377.867H41.7458V449.259H119.815V377.867Z" fill="#333333"/>
<path d="M107.38 371.487H54.009V402.182H107.38V371.487Z" fill="#333333"/>
<path d="M223.793 368.383H145.724V450.639H223.793V368.383Z" fill="#333333"/>
<path d="M211.53 361.14H158.159V396.664H211.53V361.14Z" fill="#333333"/>
<path d="M485.119 393.388H407.049V472.885H485.119V393.388Z" fill="#333333"/>
<path d="M472.856 386.318H419.485V420.634H472.856V386.318Z" fill="#333333"/>
<path d="M315.853 229.221H228.629V450.467H315.853V229.221Z" fill="#333333"/>
<path opacity="0.46" d="M254.019 239.223H232.947V243.189H254.019V239.223Z" fill="#E6E6E6"/>
<path opacity="0.34" d="M282.863 239.223H261.792V243.189H282.863V239.223Z" fill="#E6E6E6"/>
<path opacity="0.52" d="M311.535 239.223H290.463V243.189H311.535V239.223Z" fill="#E6E6E6"/>
<path opacity="0.54" d="M254.019 248.362H232.947V252.328H254.019V248.362Z" fill="#E6E6E6"/>
<path opacity="0.3" d="M282.863 248.362H261.792V252.328H282.863V248.362Z" fill="#E6E6E6"/>
<path opacity="0.06" d="M311.535 248.362H290.463V252.328H311.535V248.362Z" fill="#E6E6E6"/>
<path opacity="0.15" d="M254.019 257.502H232.947V261.468H254.019V257.502Z" fill="#E6E6E6"/>
<path opacity="0.42" d="M282.863 257.502H261.792V261.468H282.863V257.502Z" fill="#E6E6E6"/>
<path opacity="0.48" d="M311.535 257.502H290.463V261.468H311.535V257.502Z" fill="#E6E6E6"/>
<path opacity="0.18" d="M254.019 266.641H232.947V270.607H254.019V266.641Z" fill="#E6E6E6"/>
<path opacity="0.28" d="M311.535 266.641H290.463V270.607H311.535V266.641Z" fill="#E6E6E6"/>
<path opacity="0.29" d="M254.019 275.781H232.947V279.747H254.019V275.781Z" fill="#E6E6E6"/>
<path opacity="0.28" d="M282.863 275.781H261.792V279.747H282.863V275.781Z" fill="#E6E6E6"/>
<path opacity="0.56" d="M311.535 275.781H290.463V279.747H311.535V275.781Z" fill="#E6E6E6"/>
<path opacity="0.41" d="M254.019 284.92H232.947V288.887H254.019V284.92Z" fill="#E6E6E6"/>
<path opacity="0.16" d="M282.863 284.92H261.792V288.887H282.863V284.92Z" fill="#E6E6E6"/>
<path opacity="0.4" d="M311.535 284.92H290.463V288.887H311.535V284.92Z" fill="#E6E6E6"/>
<path opacity="0.1" d="M254.019 294.06H232.947V298.026H254.019V294.06Z" fill="#E6E6E6"/>
<path opacity="0.17" d="M282.863 294.06H261.792V298.026H282.863V294.06Z" fill="#E6E6E6"/>
<path opacity="0.08" d="M311.535 294.06H290.463V298.026H311.535V294.06Z" fill="#E6E6E6"/>
<path opacity="0.49" d="M254.019 303.199H232.947V307.166H254.019V303.199Z" fill="#E6E6E6"/>
<path opacity="0.58" d="M282.863 303.199H261.792V307.166H282.863V303.199Z" fill="#E6E6E6"/>
<path opacity="0.58" d="M311.535 303.199H290.463V307.166H311.535V303.199Z" fill="#E6E6E6"/>
<path opacity="0.26" d="M254.019 312.339H232.947V316.305H254.019V312.339Z" fill="#E6E6E6"/>
<path opacity="0.37" d="M282.863 312.339H261.792V316.305H282.863V312.339Z" fill="#E6E6E6"/>
<path opacity="0.34" d="M311.535 312.339H290.463V316.305H311.535V312.339Z" fill="#E6E6E6"/>
<path opacity="0.55" d="M254.019 321.479H232.947V325.445H254.019V321.479Z" fill="#E6E6E6"/>
<path opacity="0.12" d="M282.863 321.479H261.792V325.445H282.863V321.479Z" fill="#E6E6E6"/>
<path opacity="0.6" d="M311.535 321.479H290.463V325.445H311.535V321.479Z" fill="#E6E6E6"/>
<path opacity="0.02" d="M254.019 330.618H232.947V334.584H254.019V330.618Z" fill="#E6E6E6"/>
<path opacity="0.28" d="M282.863 330.618H261.792V334.584H282.863V330.618Z" fill="#E6E6E6"/>
<path opacity="0.21" d="M311.535 330.618H290.463V334.584H311.535V330.618Z" fill="#E6E6E6"/>
<path opacity="0.57" d="M254.019 339.758H232.947V343.724H254.019V339.758Z" fill="#E6E6E6"/>
<path opacity="0.38" d="M282.863 339.758H261.792V343.724H282.863V339.758Z" fill="#E6E6E6"/>
<path opacity="0.25" d="M311.535 339.758H290.463V343.724H311.535V339.758Z" fill="#E6E6E6"/>
<path opacity="0.15" d="M254.019 348.897H232.947V352.863H254.019V348.897Z" fill="#E6E6E6"/>
<path opacity="0.47" d="M282.863 348.897H261.792V352.863H282.863V348.897Z" fill="#E6E6E6"/>
<path opacity="0.3" d="M311.535 348.897H290.463V352.863H311.535V348.897Z" fill="#E6E6E6"/>
<path opacity="0.4" d="M254.019 358.037H232.947V362.003H254.019V358.037Z" fill="#E6E6E6"/>
<path opacity="0.39" d="M282.863 358.037H261.792V362.003H282.863V358.037Z" fill="#E6E6E6"/>
<path opacity="0.24" d="M311.535 358.037H290.463V362.003H311.535V358.037Z" fill="#E6E6E6"/>
<path opacity="0.46" d="M254.019 367.176H232.947V371.142H254.019V367.176Z" fill="#E6E6E6"/>
<path opacity="0.22" d="M282.863 367.176H261.792V371.142H282.863V367.176Z" fill="#E6E6E6"/>
<path opacity="0.11" d="M311.535 367.176H290.463V371.142H311.535V367.176Z" fill="#E6E6E6"/>
<path opacity="0.11" d="M282.863 376.316H261.792V380.282H282.863V376.316Z" fill="#E6E6E6"/>
<path opacity="0.02" d="M311.535 376.316H290.463V380.282H311.535V376.316Z" fill="#E6E6E6"/>
<path opacity="0.27" d="M254.019 385.456H232.947V389.422H254.019V385.456Z" fill="#E6E6E6"/>
<path opacity="0.21" d="M282.863 385.456H261.792V389.422H282.863V385.456Z" fill="#E6E6E6"/>
<path opacity="0.49" d="M311.535 385.456H290.463V389.422H311.535V385.456Z" fill="#E6E6E6"/>
<path opacity="0.6" d="M254.019 394.595H232.947V398.561H254.019V394.595Z" fill="#E6E6E6"/>
<path opacity="0.31" d="M282.863 394.595H261.792V398.561H282.863V394.595Z" fill="#E6E6E6"/>
<path opacity="0.22" d="M311.535 394.595H290.463V398.561H311.535V394.595Z" fill="#E6E6E6"/>
<path opacity="0.54" d="M254.019 403.734H232.947V407.701H254.019V403.734Z" fill="#E6E6E6"/>
<path opacity="0.6" d="M282.863 403.734H261.792V407.701H282.863V403.734Z" fill="#E6E6E6"/>
<path opacity="0.08" d="M311.535 403.734H290.463V407.701H311.535V403.734Z" fill="#E6E6E6"/>
<path opacity="0.55" d="M282.863 412.874H261.792V416.84H282.863V412.874Z" fill="#E6E6E6"/>
<path d="M311.535 412.874H290.463V416.84H311.535V412.874Z" fill="#E6E6E6"/>
<path opacity="0.6" d="M255.401 239.223H254.019V416.84H255.401V239.223Z" fill="#E6E6E6"/>
<path opacity="0.6" d="M290.463 239.223H289.081V416.84H290.463V239.223Z" fill="#E6E6E6"/>
<path d="M359.378 229.221H315.853V450.467H359.378V229.221Z" fill="#4D4D4D"/>
<path opacity="0.69" d="M352.988 239.223H320.171V243.189H352.988V239.223Z" fill="#E6E6E6"/>
<path opacity="0.79" d="M352.988 248.362H320.171V252.328H352.988V248.362Z" fill="#E6E6E6"/>
<path opacity="0.19" d="M352.988 257.502H320.171V261.468H352.988V257.502Z" fill="#E6E6E6"/>
<path opacity="0.88" d="M352.988 266.641H320.171V270.607H352.988V266.641Z" fill="#E6E6E6"/>
<path opacity="0.5" d="M352.988 275.781H320.171V279.747H352.988V275.781Z" fill="#E6E6E6"/>
<path opacity="0.25" d="M352.988 284.92H320.171V288.887H352.988V284.92Z" fill="#E6E6E6"/>
<path opacity="0.91" d="M352.988 294.06H320.171V298.026H352.988V294.06Z" fill="#E6E6E6"/>
<path opacity="0.02" d="M352.988 303.199H320.171V307.166H352.988V303.199Z" fill="#E6E6E6"/>
<path opacity="0.53" d="M352.988 312.339H320.171V316.305H352.988V312.339Z" fill="#E6E6E6"/>
<path opacity="0.65" d="M352.988 321.479H320.171V325.445H352.988V321.479Z" fill="#E6E6E6"/>
<path d="M352.988 330.618H320.171V334.584H352.988V330.618Z" fill="#E6E6E6"/>
<path opacity="0.8" d="M352.988 339.758H320.171V343.724H352.988V339.758Z" fill="#E6E6E6"/>
<path opacity="0.82" d="M352.988 348.897H320.171V352.863H352.988V348.897Z" fill="#E6E6E6"/>
<path opacity="0.75" d="M352.988 358.037H320.171V362.003H352.988V358.037Z" fill="#E6E6E6"/>
<path opacity="0.31" d="M352.988 367.176H320.171V371.142H352.988V367.176Z" fill="#E6E6E6"/>
<path opacity="0.22" d="M352.988 376.316H320.171V380.282H352.988V376.316Z" fill="#E6E6E6"/>
<path opacity="0.43" d="M352.988 385.456H320.171V389.422H352.988V385.456Z" fill="#E6E6E6"/>
<path opacity="0.68" d="M352.988 394.595H320.171V398.561H352.988V394.595Z" fill="#E6E6E6"/>
<path opacity="0.38" d="M352.988 403.734H320.171V407.701H352.988V403.734Z" fill="#E6E6E6"/>
<path opacity="0.84" d="M352.988 412.874H320.171V416.84H352.988V412.874Z" fill="#E6E6E6"/>
<path d="M244.001 217.494V229.221H300.481V217.494H244.001ZM256.61 225.427H250.737V221.461H256.61V225.427ZM265.764 225.427H260.064V221.461H265.764V225.427ZM275.091 225.427H269.391V221.461H275.091V225.427ZM284.418 225.427H278.545V221.461H284.418V225.427ZM293.745 225.427H287.872V221.461H293.745V225.427Z" fill="#333333"/>
<path d="M310.844 221.461H309.29V225.427H310.844V221.461Z" fill="#333333"/>
<path d="M300.481 217.494V229.221H327.08V217.494H300.481ZM310.844 225.427H305.144V221.461H310.844V225.427ZM323.107 225.427H317.408V221.461H323.107V225.427Z" fill="#4D4D4D"/>
<path d="M322.935 221.461H321.38V225.427H322.935V221.461Z" fill="#333333"/>
<path d="M327.425 465.469H209.976L327.425 378.902V465.469Z" fill="#333333"/>
<path d="M152.287 182.316H142.787V218.357H152.287V182.316Z" fill="#4D4D4D"/>
<path d="M142.96 182.316H133.288V218.357H142.96V182.316Z" fill="#333333"/>
<path d="M162.132 182.316H152.46V218.357H162.132V182.316Z" fill="#666666"/>
<path d="M190.113 243.016H163.168V448.57H190.113V243.016Z" fill="#666666"/>
<path d="M131.561 243.016H108.071V448.57H131.561V243.016Z" fill="#333333"/>
<path d="M163.168 243.016H131.388V448.57H163.168V243.016Z" fill="#4D4D4D"/>
<path opacity="0.6" d="M114.807 249.052H111.352V445.811H114.807V249.052Z" fill="#E6E6E6"/>
<path opacity="0.6" d="M121.543 249.052H118.088V445.811H121.543V249.052Z" fill="#E6E6E6"/>
<path opacity="0.6" d="M128.279 249.052H124.825V445.811H128.279V249.052Z" fill="#E6E6E6"/>
<path d="M168.523 249.052H165.068V445.811H168.523V249.052Z" fill="#E6E6E6"/>
<path d="M175.259 249.052H171.804V445.811H175.259V249.052Z" fill="#E6E6E6"/>
<path d="M188.385 249.052H184.931V445.811H188.385V249.052Z" fill="#E6E6E6"/>
<path d="M181.995 249.052H178.54V445.811H181.995V249.052Z" fill="#E6E6E6"/>
<path opacity="0.8" d="M135.36 445.811H159.196V249.052H135.36V445.811ZM139.16 252.5H155.396V442.362H139.16V252.5Z" fill="#E6E6E6"/>
<path opacity="0.8" d="M142.269 439.085H152.46V255.604H142.269V439.085ZM145.724 259.915H146.933H147.624H149.005V434.774H147.624H146.933H145.724V259.915Z" fill="#E6E6E6"/>
<path opacity="0.8" d="M147.624 259.916H146.933V434.774H147.624V259.916Z" fill="#E6E6E6"/>
<path d="M159.541 206.975H135.706V243.016H159.541V206.975Z" fill="#4D4D4D"/>
<path d="M159.541 206.975H135.706V243.016H159.541V206.975Z" fill="#4D4D4D"/>
<path d="M183.377 206.975H159.541V243.016H183.377V206.975Z" fill="#666666"/>
<path d="M135.706 206.975H111.87V243.016H135.706V206.975Z" fill="#333333"/>
<path d="M161.959 182.316H133.288L142.787 188.869H152.46L161.959 182.316Z" fill="#808080"/>
<path d="M674.42 169.037H660.603V209.562H674.42V169.037Z" fill="#4D4D4D"/>
<path d="M660.43 169.037H646.612V209.562H660.43V169.037Z" fill="#333333"/>
<path d="M688.238 169.037H674.42V209.562H688.238V169.037Z" fill="#666666"/>
<path d="M729 237.498H689.965V469.091H729V237.498Z" fill="#666666"/>
<path d="M644.021 237.498H610.168V469.091H644.021V237.498Z" fill="#333333"/>
<path d="M689.965 237.498H644.022V469.091H689.965V237.498Z" fill="#4D4D4D"/>
<path opacity="0.4" d="M619.841 244.396H614.832V465.987H619.841V244.396Z" fill="#E6E6E6"/>
<path opacity="0.4" d="M629.686 244.396H624.677V465.987H629.686V244.396Z" fill="#E6E6E6"/>
<path opacity="0.4" d="M639.531 244.396H634.522V465.987H639.531V244.396Z" fill="#E6E6E6"/>
<path d="M697.738 244.396H692.729V465.987H697.738V244.396Z" fill="#E6E6E6"/>
<path d="M707.583 244.396H702.574V465.987H707.583V244.396Z" fill="#E6E6E6"/>
<path d="M726.409 244.396H721.4V465.987H726.409V244.396Z" fill="#E6E6E6"/>
<path d="M717.255 244.396H712.246V465.987H717.255V244.396Z" fill="#E6E6E6"/>
<path d="M649.894 465.987H684.438V244.396H649.894V465.987ZM655.248 248.189H678.738V462.193H655.248V248.189Z" fill="#E6E6E6"/>
<path d="M659.566 458.572H674.42V251.811H659.566V458.572ZM664.748 256.639H666.648H667.512H669.411V453.743H667.512H666.648H664.748V256.639Z" fill="#E6E6E6"/>
<path d="M667.512 256.639H666.648V453.743H667.512V256.639Z" fill="#E6E6E6"/>
<path d="M684.784 196.973H650.24V237.498H684.784V196.973Z" fill="#4D4D4D"/>
<path d="M684.784 196.973H650.24V237.498H684.784V196.973Z" fill="#4D4D4D"/>
<path d="M719.328 196.973H684.784V237.498H719.328V196.973Z" fill="#666666"/>
<path d="M650.412 196.973H615.868V237.498H650.412V196.973Z" fill="#333333"/>
<path d="M688.411 169.037H646.612L660.603 176.453H674.42L688.411 169.037Z" fill="#808080"/>
<path d="M574.761 269.572H480.283V300.957H574.761V269.572Z" fill="#E6E6E6"/>
<path d="M517.418 269.572H480.283V300.957H517.418V269.572Z" fill="#B3B3B3"/>
<path d="M517.418 301.129H444.011V453.57H517.418V301.129Z" fill="#333333"/>
<path d="M632.104 301.129H517.418V453.57H632.104V301.129Z" fill="#4D4D4D"/>
<path d="M508.436 285.609H451.957V301.129H508.436V285.609Z" fill="#333333"/>
<path d="M615.005 285.609H534.344V301.129H615.005V285.609Z" fill="#4D4D4D"/>
<path d="M549.716 257.673H517.418V269.572H549.716V257.673Z" fill="#E6E6E6"/>
<path d="M533.481 245.602H517.418V257.501H533.481V245.602Z" fill="#4D4D4D"/>
<path d="M517.245 245.602H501.182V257.501H517.245V245.602Z" fill="#333333"/>
<path d="M517.418 257.673H492.719V269.572H517.418V257.673Z" fill="#B3B3B3"/>
<path d="M516.381 245.602L517.418 218.011L518.281 245.602H516.381Z" fill="#333333"/>
<path opacity="0.12" d="M467.156 307.337H461.111V313.373H467.156V307.337Z" fill="white"/>
<path opacity="0.25" d="M475.447 307.337H469.401V313.373H475.447V307.337Z" fill="white"/>
<path opacity="0.36" d="M483.737 307.337H477.692V313.373H483.737V307.337Z" fill="white"/>
<path opacity="0.12" d="M492.028 307.337H485.982V313.373H492.028V307.337Z" fill="white"/>
<path opacity="0.14" d="M500.318 307.337H494.273V313.373H500.318V307.337Z" fill="white"/>
<path opacity="0.28" d="M467.156 315.269H461.111V321.305H467.156V315.269Z" fill="white"/>
<path opacity="0.4" d="M475.447 315.269H469.401V321.305H475.447V315.269Z" fill="white"/>
<path opacity="0.16" d="M483.737 315.269H477.692V321.305H483.737V315.269Z" fill="white"/>
<path opacity="0.17" d="M500.318 315.269H494.273V321.305H500.318V315.269Z" fill="white"/>
<path opacity="0.27" d="M467.156 323.202H461.111V329.237H467.156V323.202Z" fill="white"/>
<path opacity="0.45" d="M475.447 323.202H469.401V329.237H475.447V323.202Z" fill="white"/>
<path opacity="0.45" d="M483.737 323.202H477.692V329.237H483.737V323.202Z" fill="white"/>
<path opacity="0.48" d="M492.028 323.202H485.982V329.237H492.028V323.202Z" fill="white"/>
<path opacity="0.25" d="M500.318 323.202H494.273V329.237H500.318V323.202Z" fill="white"/>
<path opacity="0.28" d="M467.156 331.134H461.111V337.17H467.156V331.134Z" fill="white"/>
<path opacity="0.13" d="M475.447 331.134H469.401V337.17H475.447V331.134Z" fill="white"/>
<path opacity="0.07" d="M483.737 331.134H477.692V337.17H483.737V331.134Z" fill="white"/>
<path opacity="0.39" d="M492.028 331.134H485.982V337.17H492.028V331.134Z" fill="white"/>
<path opacity="0.47" d="M500.318 331.134H494.273V337.17H500.318V331.134Z" fill="white"/>
<path opacity="0.28" d="M467.156 339.067H461.111V345.102H467.156V339.067Z" fill="white"/>
<path opacity="0.2" d="M475.447 339.067H469.401V345.102H475.447V339.067Z" fill="white"/>
<path opacity="0.04" d="M483.737 339.067H477.692V345.102H483.737V339.067Z" fill="white"/>
<path opacity="0.43" d="M492.028 339.067H485.982V345.102H492.028V339.067Z" fill="white"/>
<path opacity="0.48" d="M500.318 339.067H494.273V345.102H500.318V339.067Z" fill="white"/>
<path opacity="0.28" d="M467.156 346.999H461.111V353.035H467.156V346.999Z" fill="white"/>
<path opacity="0.19" d="M475.447 346.999H469.401V353.035H475.447V346.999Z" fill="white"/>
<path opacity="0.01" d="M483.737 346.999H477.692V353.035H483.737V346.999Z" fill="white"/>
<path opacity="0.27" d="M492.028 346.999H485.982V353.035H492.028V346.999Z" fill="white"/>
<path opacity="0.24" d="M500.318 346.999H494.273V353.035H500.318V346.999Z" fill="white"/>
<path opacity="0.07" d="M467.156 355.104H461.111V361.14H467.156V355.104Z" fill="white"/>
<path opacity="0.25" d="M475.447 355.104H469.401V361.14H475.447V355.104Z" fill="white"/>
<path opacity="0.26" d="M483.737 355.104H477.692V361.14H483.737V355.104Z" fill="white"/>
<path opacity="0.39" d="M492.028 355.104H485.982V361.14H492.028V355.104Z" fill="white"/>
<path opacity="0.22" d="M500.318 355.104H494.273V361.14H500.318V355.104Z" fill="white"/>
<path opacity="0.15" d="M467.156 363.036H461.111V369.072H467.156V363.036Z" fill="white"/>
<path opacity="0.23" d="M475.447 363.036H469.401V369.072H475.447V363.036Z" fill="white"/>
<path opacity="0.05" d="M483.737 363.036H477.692V369.072H483.737V363.036Z" fill="white"/>
<path opacity="0.2" d="M492.028 363.036H485.982V369.072H492.028V363.036Z" fill="white"/>
<path opacity="0.31" d="M500.318 363.036H494.273V369.072H500.318V363.036Z" fill="white"/>
<path opacity="0.15" d="M467.156 370.969H461.111V377.004H467.156V370.969Z" fill="white"/>
<path opacity="0.33" d="M475.447 370.969H469.401V377.004H475.447V370.969Z" fill="white"/>
<path opacity="0.46" d="M483.737 370.969H477.692V377.004H483.737V370.969Z" fill="white"/>
<path opacity="0.25" d="M492.028 370.969H485.982V377.004H492.028V370.969Z" fill="white"/>
<path opacity="0.43" d="M500.318 370.969H494.273V377.004H500.318V370.969Z" fill="white"/>
<path opacity="0.4" d="M467.156 378.901H461.111V384.937H467.156V378.901Z" fill="white"/>
<path opacity="0.39" d="M475.447 378.901H469.401V384.937H475.447V378.901Z" fill="white"/>
<path opacity="0.01" d="M483.737 378.901H477.692V384.937H483.737V378.901Z" fill="white"/>
<path opacity="0.12" d="M492.028 378.901H485.982V384.937H492.028V378.901Z" fill="white"/>
<path opacity="0.07" d="M500.318 378.901H494.273V384.937H500.318V378.901Z" fill="white"/>
<path opacity="0.07" d="M467.156 386.834H461.111V392.87H467.156V386.834Z" fill="white"/>
<path opacity="0.02" d="M475.447 386.834H469.401V392.87H475.447V386.834Z" fill="white"/>
<path opacity="0.12" d="M483.737 386.834H477.692V392.87H483.737V386.834Z" fill="white"/>
<path opacity="0.23" d="M492.028 386.834H485.982V392.87H492.028V386.834Z" fill="white"/>
<path opacity="0.26" d="M500.318 386.834H494.273V392.87H500.318V386.834Z" fill="white"/>
<path opacity="0.27" d="M467.156 394.766H461.111V400.802H467.156V394.766Z" fill="white"/>
<path opacity="0.38" d="M475.447 394.766H469.401V400.802H475.447V394.766Z" fill="white"/>
<path opacity="0.05" d="M483.737 394.766H477.692V400.802H483.737V394.766Z" fill="white"/>
<path opacity="0.45" d="M492.028 394.766H485.982V400.802H492.028V394.766Z" fill="white"/>
<path opacity="0.15" d="M500.318 394.766H494.273V400.802H500.318V394.766Z" fill="white"/>
<path opacity="0.06" d="M467.156 402.699H461.111V408.734H467.156V402.699Z" fill="white"/>
<path opacity="0.47" d="M475.447 402.699H469.401V408.734H475.447V402.699Z" fill="white"/>
<path opacity="0.15" d="M483.737 402.699H477.692V408.734H483.737V402.699Z" fill="white"/>
<path opacity="0.44" d="M492.028 402.699H485.982V408.734H492.028V402.699Z" fill="white"/>
<path opacity="0.14" d="M500.318 402.699H494.273V408.734H500.318V402.699Z" fill="white"/>
<path opacity="0.15" d="M467.156 410.631H461.111V416.667H467.156V410.631Z" fill="white"/>
<path opacity="0.43" d="M475.447 410.631H469.401V416.667H475.447V410.631Z" fill="white"/>
<path opacity="0.07" d="M483.737 410.631H477.692V416.667H483.737V410.631Z" fill="white"/>
<path opacity="0.47" d="M492.028 410.631H485.982V416.667H492.028V410.631Z" fill="white"/>
<path opacity="0.11" d="M500.318 410.631H494.273V416.667H500.318V410.631Z" fill="white"/>
<path opacity="0.07" d="M467.156 418.564H461.111V424.599H467.156V418.564Z" fill="white"/>
<path opacity="0.34" d="M475.447 418.564H469.401V424.599H475.447V418.564Z" fill="white"/>
<path opacity="0.5" d="M483.737 418.564H477.692V424.599H483.737V418.564Z" fill="white"/>
<path opacity="0.36" d="M492.028 418.564H485.982V424.599H492.028V418.564Z" fill="white"/>
<path opacity="0.34" d="M500.318 418.564H494.273V424.599H500.318V418.564Z" fill="white"/>
<path opacity="0.47" d="M467.156 426.496H461.111V432.532H467.156V426.496Z" fill="white"/>
<path opacity="0.41" d="M475.447 426.496H469.401V432.532H475.447V426.496Z" fill="white"/>
<path opacity="0.3" d="M483.737 426.496H477.692V432.532H483.737V426.496Z" fill="white"/>
<path opacity="0.33" d="M492.028 426.496H485.982V432.532H492.028V426.496Z" fill="white"/>
<path opacity="0.12" d="M500.318 426.496H494.273V432.532H500.318V426.496Z" fill="white"/>
<path opacity="0.24" d="M467.156 434.428H461.111V440.464H467.156V434.428Z" fill="white"/>
<path opacity="0.29" d="M475.447 434.428H469.401V440.464H475.447V434.428Z" fill="white"/>
<path opacity="0.27" d="M492.028 434.428H485.982V440.464H492.028V434.428Z" fill="white"/>
<path opacity="0.04" d="M500.318 434.428H494.273V440.464H500.318V434.428Z" fill="white"/>
<path opacity="0.11" d="M467.156 442.361H461.111V448.396H467.156V442.361Z" fill="white"/>
<path opacity="0.05" d="M475.447 442.361H469.401V448.396H475.447V442.361Z" fill="white"/>
<path opacity="0.04" d="M483.737 442.361H477.692V448.396H483.737V442.361Z" fill="white"/>
<path opacity="0.02" d="M492.028 442.361H485.982V448.396H492.028V442.361Z" fill="white"/>
<path opacity="0.3" d="M537.453 307.337H531.408V313.373H537.453V307.337Z" fill="white"/>
<path opacity="0.72" d="M545.398 307.337H539.353V313.373H545.398V307.337Z" fill="white"/>
<path opacity="0.7" d="M553.516 307.337H547.471V313.373H553.516V307.337Z" fill="white"/>
<path opacity="0.52" d="M561.634 307.337H555.589V313.373H561.634V307.337Z" fill="white"/>
<path opacity="0.2" d="M569.752 307.337H563.706V313.373H569.752V307.337Z" fill="white"/>
<path opacity="0.32" d="M577.697 307.337H571.652V313.373H577.697V307.337Z" fill="white"/>
<path opacity="0.13" d="M585.815 307.337H579.77V313.373H585.815V307.337Z" fill="white"/>
<path opacity="0.38" d="M593.933 307.337H587.887V313.373H593.933V307.337Z" fill="white"/>
<path opacity="0.61" d="M601.878 307.337H595.833V313.373H601.878V307.337Z" fill="white"/>
<path d="M609.996 307.337H603.95V313.373H609.996V307.337Z" fill="white"/>
<path opacity="0.91" d="M618.113 307.337H612.068V313.373H618.113V307.337Z" fill="white"/>
<path opacity="0.66" d="M537.453 315.269H531.408V321.305H537.453V315.269Z" fill="white"/>
<path opacity="0.31" d="M545.398 315.269H539.353V321.305H545.398V315.269Z" fill="white"/>
<path opacity="0.95" d="M553.516 315.269H547.471V321.305H553.516V315.269Z" fill="white"/>
<path opacity="0.7" d="M561.634 315.269H555.589V321.305H561.634V315.269Z" fill="white"/>
<path opacity="0.12" d="M569.752 315.269H563.706V321.305H569.752V315.269Z" fill="white"/>
<path opacity="0.24" d="M577.697 315.269H571.652V321.305H577.697V315.269Z" fill="white"/>
<path opacity="0.66" d="M585.815 315.269H579.77V321.305H585.815V315.269Z" fill="white"/>
<path opacity="0.71" d="M593.933 315.269H587.887V321.305H593.933V315.269Z" fill="white"/>
<path opacity="0.42" d="M601.878 315.269H595.833V321.305H601.878V315.269Z" fill="white"/>
<path opacity="0.09" d="M609.996 315.269H603.95V321.305H609.996V315.269Z" fill="white"/>
<path opacity="0.32" d="M618.113 315.269H612.068V321.305H618.113V315.269Z" fill="white"/>
<path opacity="0.65" d="M537.453 323.202H531.408V329.237H537.453V323.202Z" fill="white"/>
<path d="M545.398 323.202H539.353V329.237H545.398V323.202Z" fill="white"/>
<path d="M553.516 323.202H547.471V329.237H553.516V323.202Z" fill="white"/>
<path opacity="0.71" d="M561.634 323.202H555.589V329.237H561.634V323.202Z" fill="white"/>
<path opacity="0.2" d="M569.752 323.202H563.706V329.237H569.752V323.202Z" fill="white"/>
<path opacity="0.19" d="M577.697 323.202H571.652V329.237H577.697V323.202Z" fill="white"/>
<path opacity="0.62" d="M585.815 323.202H579.77V329.237H585.815V323.202Z" fill="white"/>
<path opacity="0.93" d="M593.933 323.202H587.887V329.237H593.933V323.202Z" fill="white"/>
<path opacity="0.56" d="M601.878 323.202H595.833V329.237H601.878V323.202Z" fill="white"/>
<path opacity="0.57" d="M609.996 323.202H603.95V329.237H609.996V323.202Z" fill="white"/>
<path opacity="0.52" d="M618.113 323.202H612.068V329.237H618.113V323.202Z" fill="white"/>
<path opacity="0.74" d="M537.453 331.134H531.408V337.17H537.453V331.134Z" fill="white"/>
<path opacity="0.56" d="M545.398 331.134H539.353V337.17H545.398V331.134Z" fill="white"/>
<path opacity="0.78" d="M553.516 331.134H547.471V337.17H553.516V331.134Z" fill="white"/>
<path opacity="0.41" d="M561.634 331.134H555.589V337.17H561.634V331.134Z" fill="white"/>
<path opacity="0.14" d="M569.752 331.134H563.706V337.17H569.752V331.134Z" fill="white"/>
<path opacity="0.28" d="M577.697 331.134H571.652V337.17H577.697V331.134Z" fill="white"/>
<path opacity="0.36" d="M585.815 331.134H579.77V337.17H585.815V331.134Z" fill="white"/>
<path opacity="0.14" d="M593.933 331.134H587.887V337.17H593.933V331.134Z" fill="white"/>
<path opacity="0.5" d="M601.878 331.134H595.833V337.17H601.878V331.134Z" fill="white"/>
<path opacity="0.98" d="M609.996 331.134H603.95V337.17H609.996V331.134Z" fill="white"/>
<path opacity="0.59" d="M618.113 331.134H612.068V337.17H618.113V331.134Z" fill="white"/>
<path opacity="0.07" d="M537.453 339.067H531.408V345.102H537.453V339.067Z" fill="white"/>
<path opacity="0.1" d="M545.398 339.067H539.353V345.102H545.398V339.067Z" fill="white"/>
<path opacity="0.88" d="M553.516 339.067H547.471V345.102H553.516V339.067Z" fill="white"/>
<path opacity="0.68" d="M561.634 339.067H555.589V345.102H561.634V339.067Z" fill="white"/>
<path opacity="0.81" d="M569.752 339.067H563.706V345.102H569.752V339.067Z" fill="white"/>
<path opacity="0.62" d="M577.697 339.067H571.652V345.102H577.697V339.067Z" fill="white"/>
<path opacity="0.97" d="M585.815 339.067H579.77V345.102H585.815V339.067Z" fill="white"/>
<path opacity="0.81" d="M593.933 339.067H587.887V345.102H593.933V339.067Z" fill="white"/>
<path opacity="0.79" d="M601.878 339.067H595.833V345.102H601.878V339.067Z" fill="white"/>
<path opacity="0.03" d="M609.996 339.067H603.95V345.102H609.996V339.067Z" fill="white"/>
<path opacity="0.95" d="M618.113 339.067H612.068V345.102H618.113V339.067Z" fill="white"/>
<path opacity="0.62" d="M537.453 346.999H531.408V353.035H537.453V346.999Z" fill="white"/>
<path opacity="0.22" d="M545.398 346.999H539.353V353.035H545.398V346.999Z" fill="white"/>
<path opacity="0.42" d="M553.516 346.999H547.471V353.035H553.516V346.999Z" fill="white"/>
<path opacity="0.56" d="M561.634 346.999H555.589V353.035H561.634V346.999Z" fill="white"/>
<path opacity="0.03" d="M569.752 346.999H563.706V353.035H569.752V346.999Z" fill="white"/>
<path opacity="0.64" d="M577.697 346.999H571.652V353.035H577.697V346.999Z" fill="white"/>
<path opacity="0.82" d="M585.815 346.999H579.77V353.035H585.815V346.999Z" fill="white"/>
<path opacity="0.52" d="M593.933 346.999H587.887V353.035H593.933V346.999Z" fill="white"/>
<path opacity="0.46" d="M601.878 346.999H595.833V353.035H601.878V346.999Z" fill="white"/>
<path opacity="0.27" d="M609.996 346.999H603.95V353.035H609.996V346.999Z" fill="white"/>
<path opacity="0.46" d="M618.113 346.999H612.068V353.035H618.113V346.999Z" fill="white"/>
<path opacity="0.66" d="M537.453 355.104H531.408V361.14H537.453V355.104Z" fill="white"/>
<path opacity="0.7" d="M545.398 355.104H539.353V361.14H545.398V355.104Z" fill="white"/>
<path opacity="0.94" d="M553.516 355.104H547.471V361.14H553.516V355.104Z" fill="white"/>
<path opacity="0.5" d="M561.634 355.104H555.589V361.14H561.634V355.104Z" fill="white"/>
<path opacity="0.12" d="M569.752 355.104H563.706V361.14H569.752V355.104Z" fill="white"/>
<path opacity="0.36" d="M577.697 355.104H571.652V361.14H577.697V355.104Z" fill="white"/>
<path opacity="0.51" d="M585.815 355.104H579.77V361.14H585.815V355.104Z" fill="white"/>
<path opacity="0.37" d="M593.933 355.104H587.887V361.14H593.933V355.104Z" fill="white"/>
<path opacity="0.66" d="M601.878 355.104H595.833V361.14H601.878V355.104Z" fill="white"/>
<path opacity="0.42" d="M609.996 355.104H603.95V361.14H609.996V355.104Z" fill="white"/>
<path opacity="0.5" d="M618.113 355.104H612.068V361.14H618.113V355.104Z" fill="white"/>
<path opacity="0.52" d="M537.453 363.036H531.408V369.072H537.453V363.036Z" fill="white"/>
<path opacity="0.61" d="M545.398 363.036H539.353V369.072H545.398V363.036Z" fill="white"/>
<path opacity="0.84" d="M553.516 363.036H547.471V369.072H553.516V363.036Z" fill="white"/>
<path opacity="0.89" d="M561.634 363.036H555.589V369.072H561.634V363.036Z" fill="white"/>
<path opacity="0.33" d="M569.752 363.036H563.706V369.072H569.752V363.036Z" fill="white"/>
<path opacity="0.25" d="M577.697 363.036H571.652V369.072H577.697V363.036Z" fill="white"/>
<path opacity="0.95" d="M585.815 363.036H579.77V369.072H585.815V363.036Z" fill="white"/>
<path opacity="0.09" d="M593.933 363.036H587.887V369.072H593.933V363.036Z" fill="white"/>
<path opacity="0.44" d="M601.878 363.036H595.833V369.072H601.878V363.036Z" fill="white"/>
<path opacity="0.51" d="M609.996 363.036H603.95V369.072H609.996V363.036Z" fill="white"/>
<path opacity="0.97" d="M618.113 363.036H612.068V369.072H618.113V363.036Z" fill="white"/>
<path opacity="0.26" d="M537.453 370.969H531.408V377.004H537.453V370.969Z" fill="white"/>
<path opacity="0.92" d="M545.398 370.969H539.353V377.004H545.398V370.969Z" fill="white"/>
<path opacity="0.33" d="M553.516 370.969H547.471V377.004H553.516V370.969Z" fill="white"/>
<path opacity="0.23" d="M561.634 370.969H555.589V377.004H561.634V370.969Z" fill="white"/>
<path opacity="0.42" d="M569.752 370.969H563.706V377.004H569.752V370.969Z" fill="white"/>
<path opacity="0.57" d="M577.697 370.969H571.652V377.004H577.697V370.969Z" fill="white"/>
<path opacity="0.73" d="M585.815 370.969H579.77V377.004H585.815V370.969Z" fill="white"/>
<path opacity="0.87" d="M593.933 370.969H587.887V377.004H593.933V370.969Z" fill="white"/>
<path opacity="0.22" d="M601.878 370.969H595.833V377.004H601.878V370.969Z" fill="white"/>
<path opacity="0.89" d="M609.996 370.969H603.95V377.004H609.996V370.969Z" fill="white"/>
<path opacity="0.73" d="M618.113 370.969H612.068V377.004H618.113V370.969Z" fill="white"/>
<path opacity="0.35" d="M537.453 378.901H531.408V384.937H537.453V378.901Z" fill="white"/>
<path opacity="0.81" d="M545.398 378.901H539.353V384.937H545.398V378.901Z" fill="white"/>
<path opacity="0.56" d="M553.516 378.901H547.471V384.937H553.516V378.901Z" fill="white"/>
<path opacity="0.81" d="M561.634 378.901H555.589V384.937H561.634V378.901Z" fill="white"/>
<path opacity="0.87" d="M569.752 378.901H563.706V384.937H569.752V378.901Z" fill="white"/>
<path opacity="0.39" d="M577.697 378.901H571.652V384.937H577.697V378.901Z" fill="white"/>
<path opacity="0.31" d="M585.815 378.901H579.77V384.937H585.815V378.901Z" fill="white"/>
<path opacity="0.98" d="M593.933 378.901H587.887V384.937H593.933V378.901Z" fill="white"/>
<path opacity="0.17" d="M601.878 378.901H595.833V384.937H601.878V378.901Z" fill="white"/>
<path opacity="0.06" d="M609.996 378.901H603.95V384.937H609.996V378.901Z" fill="white"/>
<path opacity="0.57" d="M618.113 378.901H612.068V384.937H618.113V378.901Z" fill="white"/>
<path opacity="0.67" d="M537.453 386.834H531.408V392.87H537.453V386.834Z" fill="white"/>
<path opacity="0.83" d="M545.398 386.834H539.353V392.87H545.398V386.834Z" fill="white"/>
<path opacity="0.99" d="M553.516 386.834H547.471V392.87H553.516V386.834Z" fill="white"/>
<path opacity="0.62" d="M561.634 386.834H555.589V392.87H561.634V386.834Z" fill="white"/>
<path opacity="0.87" d="M569.752 386.834H563.706V392.87H569.752V386.834Z" fill="white"/>
<path opacity="0.14" d="M577.697 386.834H571.652V392.87H577.697V386.834Z" fill="white"/>
<path opacity="0.12" d="M585.815 386.834H579.77V392.87H585.815V386.834Z" fill="white"/>
<path opacity="0.11" d="M593.933 386.834H587.887V392.87H593.933V386.834Z" fill="white"/>
<path opacity="0.39" d="M601.878 386.834H595.833V392.87H601.878V386.834Z" fill="white"/>
<path opacity="0.58" d="M609.996 386.834H603.95V392.87H609.996V386.834Z" fill="white"/>
<path opacity="0.54" d="M618.113 386.834H612.068V392.87H618.113V386.834Z" fill="white"/>
<path opacity="0.99" d="M537.453 394.766H531.408V400.802H537.453V394.766Z" fill="white"/>
<path opacity="0.28" d="M545.398 394.766H539.353V400.802H545.398V394.766Z" fill="white"/>
<path opacity="0.78" d="M553.516 394.766H547.471V400.802H553.516V394.766Z" fill="white"/>
<path opacity="0.65" d="M561.634 394.766H555.589V400.802H561.634V394.766Z" fill="white"/>
<path opacity="0.32" d="M569.752 394.766H563.706V400.802H569.752V394.766Z" fill="white"/>
<path opacity="0.55" d="M577.697 394.766H571.652V400.802H577.697V394.766Z" fill="white"/>
<path opacity="0.4" d="M585.815 394.766H579.77V400.802H585.815V394.766Z" fill="white"/>
<path opacity="0.22" d="M593.933 394.766H587.887V400.802H593.933V394.766Z" fill="white"/>
<path opacity="0.87" d="M601.878 394.766H595.833V400.802H601.878V394.766Z" fill="white"/>
<path opacity="0.02" d="M609.996 394.766H603.95V400.802H609.996V394.766Z" fill="white"/>
<path opacity="0.39" d="M618.113 394.766H612.068V400.802H618.113V394.766Z" fill="white"/>
<path opacity="0.89" d="M537.453 402.699H531.408V408.734H537.453V402.699Z" fill="white"/>
<path opacity="0.97" d="M545.398 402.699H539.353V408.734H545.398V402.699Z" fill="white"/>
<path opacity="0.79" d="M553.516 402.699H547.471V408.734H553.516V402.699Z" fill="white"/>
<path opacity="0.41" d="M561.634 402.699H555.589V408.734H561.634V402.699Z" fill="white"/>
<path opacity="0.13" d="M569.752 402.699H563.706V408.734H569.752V402.699Z" fill="white"/>
<path opacity="0.9" d="M577.697 402.699H571.652V408.734H577.697V402.699Z" fill="white"/>
<path opacity="0.98" d="M585.815 402.699H579.77V408.734H585.815V402.699Z" fill="white"/>
<path opacity="0.67" d="M593.933 402.699H587.887V408.734H593.933V402.699Z" fill="white"/>
<path opacity="0.65" d="M601.878 402.699H595.833V408.734H601.878V402.699Z" fill="white"/>
<path opacity="0.89" d="M609.996 402.699H603.95V408.734H609.996V402.699Z" fill="white"/>
<path opacity="0.98" d="M618.113 402.699H612.068V408.734H618.113V402.699Z" fill="white"/>
<path opacity="0.29" d="M537.453 410.631H531.408V416.667H537.453V410.631Z" fill="white"/>
<path opacity="0.74" d="M545.398 410.631H539.353V416.667H545.398V410.631Z" fill="white"/>
<path opacity="0.64" d="M553.516 410.631H547.471V416.667H553.516V410.631Z" fill="white"/>
<path opacity="0.65" d="M561.634 410.631H555.589V416.667H561.634V410.631Z" fill="white"/>
<path opacity="0.07" d="M569.752 410.631H563.706V416.667H569.752V410.631Z" fill="white"/>
<path opacity="0.16" d="M577.697 410.631H571.652V416.667H577.697V410.631Z" fill="white"/>
<path opacity="0.84" d="M585.815 410.631H579.77V416.667H585.815V410.631Z" fill="white"/>
<path opacity="0.88" d="M593.933 410.631H587.887V416.667H593.933V410.631Z" fill="white"/>
<path opacity="0.57" d="M601.878 410.631H595.833V416.667H601.878V410.631Z" fill="white"/>
<path opacity="0.31" d="M609.996 410.631H603.95V416.667H609.996V410.631Z" fill="white"/>
<path opacity="0.03" d="M618.113 410.631H612.068V416.667H618.113V410.631Z" fill="white"/>
<path opacity="0.3" d="M537.453 418.564H531.408V424.599H537.453V418.564Z" fill="white"/>
<path opacity="0.59" d="M545.398 418.564H539.353V424.599H545.398V418.564Z" fill="white"/>
<path opacity="0.93" d="M553.516 418.564H547.471V424.599H553.516V418.564Z" fill="white"/>
<path opacity="0.06" d="M561.634 418.564H555.589V424.599H561.634V418.564Z" fill="white"/>
<path opacity="0.74" d="M569.752 418.564H563.706V424.599H569.752V418.564Z" fill="white"/>
<path opacity="0.22" d="M577.697 418.564H571.652V424.599H577.697V418.564Z" fill="white"/>
<path opacity="0.51" d="M585.815 418.564H579.77V424.599H585.815V418.564Z" fill="white"/>
<path opacity="0.7" d="M593.933 418.564H587.887V424.599H593.933V418.564Z" fill="white"/>
<path opacity="0.47" d="M601.878 418.564H595.833V424.599H601.878V418.564Z" fill="white"/>
<path opacity="0.08" d="M609.996 418.564H603.95V424.599H609.996V418.564Z" fill="white"/>
<path opacity="0.93" d="M618.113 418.564H612.068V424.599H618.113V418.564Z" fill="white"/>
<path opacity="0.81" d="M537.453 426.496H531.408V432.532H537.453V426.496Z" fill="white"/>
<path opacity="0.9" d="M545.398 426.496H539.353V432.532H545.398V426.496Z" fill="white"/>
<path opacity="0.55" d="M553.516 426.496H547.471V432.532H553.516V426.496Z" fill="white"/>
<path opacity="0.14" d="M561.634 426.496H555.589V432.532H561.634V426.496Z" fill="white"/>
<path opacity="0.66" d="M569.752 426.496H563.706V432.532H569.752V426.496Z" fill="white"/>
<path opacity="0.92" d="M577.697 426.496H571.652V432.532H577.697V426.496Z" fill="white"/>
<path opacity="0.4" d="M585.815 426.496H579.77V432.532H585.815V426.496Z" fill="white"/>
<path opacity="0.6" d="M593.933 426.496H587.887V432.532H593.933V426.496Z" fill="white"/>
<path opacity="0.99" d="M601.878 426.496H595.833V432.532H601.878V426.496Z" fill="white"/>
<path opacity="0.68" d="M609.996 426.496H603.95V432.532H609.996V426.496Z" fill="white"/>
<path opacity="0.01" d="M618.113 426.496H612.068V432.532H618.113V426.496Z" fill="white"/>
<path opacity="0.82" d="M537.453 434.428H531.408V440.464H537.453V434.428Z" fill="white"/>
<path opacity="0.92" d="M545.398 434.428H539.353V440.464H545.398V434.428Z" fill="white"/>
<path opacity="0.29" d="M553.516 434.428H547.471V440.464H553.516V434.428Z" fill="white"/>
<path opacity="0.73" d="M561.634 434.428H555.589V440.464H561.634V434.428Z" fill="white"/>
<path opacity="0.42" d="M569.752 434.428H563.706V440.464H569.752V434.428Z" fill="white"/>
<path opacity="0.06" d="M577.697 434.428H571.652V440.464H577.697V434.428Z" fill="white"/>
<path opacity="0.7" d="M585.815 434.428H579.77V440.464H585.815V434.428Z" fill="white"/>
<path opacity="0.97" d="M593.933 434.428H587.887V440.464H593.933V434.428Z" fill="white"/>
<path opacity="0.51" d="M601.878 434.428H595.833V440.464H601.878V434.428Z" fill="white"/>
<path opacity="0.69" d="M609.996 434.428H603.95V440.464H609.996V434.428Z" fill="white"/>
<path opacity="0.49" d="M618.113 434.428H612.068V440.464H618.113V434.428Z" fill="white"/>
<path opacity="0.45" d="M537.453 442.361H531.408V448.396H537.453V442.361Z" fill="white"/>
<path opacity="0.46" d="M545.398 442.361H539.353V448.396H545.398V442.361Z" fill="white"/>
<path opacity="0.04" d="M553.516 442.361H547.471V448.396H553.516V442.361Z" fill="white"/>
<path opacity="0.56" d="M561.634 442.361H555.589V448.396H561.634V442.361Z" fill="white"/>
<path opacity="0.4" d="M569.752 442.361H563.706V448.396H569.752V442.361Z" fill="white"/>
<path opacity="0.59" d="M577.697 442.361H571.652V448.396H577.697V442.361Z" fill="white"/>
<path opacity="0.82" d="M585.815 442.361H579.77V448.396H585.815V442.361Z" fill="white"/>
<path opacity="0.99" d="M593.933 442.361H587.887V448.396H593.933V442.361Z" fill="white"/>
<path opacity="0.1" d="M601.878 442.361H595.833V448.396H601.878V442.361Z" fill="white"/>
<path opacity="0.87" d="M609.996 442.361H603.95V448.396H609.996V442.361Z" fill="white"/>
<path d="M618.113 442.361H612.068V448.396H618.113V442.361Z" fill="white"/>
<path d="M435.375 268.538H378.378V446.845H435.375V268.538Z" fill="#333333"/>
<path d="M404.286 259.57H378.378V269.572H404.286V259.57Z" fill="#333333"/>
<path d="M393.404 253.707H378.378V259.57H393.404V253.707Z" fill="#333333"/>
<path opacity="0.25" d="M411.367 281.126H402.04V290.438H411.367V281.126Z" fill="white"/>
<path opacity="0.15" d="M411.367 304.061H402.04V313.373H411.367V304.061Z" fill="white"/>
<path opacity="0.19" d="M411.367 349.759H402.04V359.071H411.367V349.759Z" fill="white"/>
<path opacity="0.17" d="M411.367 372.521H402.04V381.833H411.367V372.521Z" fill="white"/>
<path opacity="0.22" d="M411.367 395.284H402.04V404.596H411.367V395.284Z" fill="white"/>
<path d="M411.367 418.219H402.04V427.531H411.367V418.219Z" fill="white"/>
<path d="M393.059 367.865H339.688V383.558H393.059V367.865Z" fill="#333333"/>
<path d="M419.658 367.865H393.059V383.558H419.658V367.865Z" fill="#4D4D4D"/>
<path d="M339.688 367.865L356.27 359.933L393.059 367.865H339.688Z" fill="#333333"/>
<path d="M356.27 359.933L393.059 367.865H419.658L356.27 359.933Z" fill="#4D4D4D"/>
<path d="M405.495 378.902H327.425V450.294H405.495V378.902Z" fill="#333333"/>
<path d="M431.403 378.902H405.495V450.294H431.403V378.902Z" fill="#4D4D4D"/>
<path opacity="0.81" d="M425.358 383.903H411.367V389.076H425.358V383.903Z" fill="white"/>
<path opacity="0.76" d="M425.358 393.387H411.367V398.56H425.358V393.387Z" fill="white"/>
<path opacity="0.32" d="M425.358 402.871H411.367V408.045H425.358V402.871Z" fill="white"/>
<path opacity="0.49" d="M425.358 412.528H411.367V417.702H425.358V412.528Z" fill="white"/>
<path opacity="0.99" d="M425.358 431.497H411.367V436.67H425.358V431.497Z" fill="white"/>
<path opacity="0.1" d="M353.852 383.903H339.861V389.076H353.852V383.903Z" fill="white"/>
<path opacity="0.04" d="M373.369 383.903H359.378V389.076H373.369V383.903Z" fill="white"/>
<path opacity="0.07" d="M393.059 383.903H379.069V389.076H393.059V383.903Z" fill="white"/>
<path opacity="0.06" d="M353.852 393.387H339.861V398.56H353.852V393.387Z" fill="white"/>
<path opacity="0.44" d="M373.369 393.387H359.378V398.56H373.369V393.387Z" fill="white"/>
<path opacity="0.24" d="M393.059 393.387H379.069V398.56H393.059V393.387Z" fill="white"/>
<path opacity="0.55" d="M353.852 402.871H339.861V408.045H353.852V402.871Z" fill="white"/>
<path opacity="0.02" d="M373.369 402.871H359.378V408.045H373.369V402.871Z" fill="white"/>
<path opacity="0.14" d="M393.059 402.871H379.069V408.045H393.059V402.871Z" fill="white"/>
<path opacity="0.43" d="M353.852 412.528H339.861V417.702H353.852V412.528Z" fill="white"/>
<path opacity="0.41" d="M373.369 412.528H359.378V417.702H373.369V412.528Z" fill="white"/>
<path opacity="0.46" d="M393.059 412.528H379.069V417.702H393.059V412.528Z" fill="white"/>
<path opacity="0.45" d="M353.852 422.013H339.861V427.186H353.852V422.013Z" fill="white"/>
<path opacity="0.33" d="M373.369 422.013H359.378V427.186H373.369V422.013Z" fill="white"/>
<path opacity="0.05" d="M393.059 422.013H379.069V427.186H393.059V422.013Z" fill="white"/>
<path opacity="0.27" d="M353.852 431.497H339.861V436.671H353.852V431.497Z" fill="white"/>
<path opacity="0.15" d="M373.369 431.497H359.378V436.671H373.369V431.497Z" fill="white"/>
<path opacity="0.7" d="M393.059 431.497H379.069V436.671H393.059V431.497Z" fill="white"/>
<path d="M25.6829 307.51H-22.6788V456.33H25.6829V307.51Z" fill="#333333"/>
<path d="M80.7806 307.51H25.8556V456.33H80.7806V307.51Z" fill="#4D4D4D"/>
<path d="M25.6829 320.099H-22.6788V322.685H25.6829V320.099Z" fill="#4D4D4D"/>
<path d="M80.7806 320.099H25.8556V322.685H80.7806V320.099Z" fill="#333333"/>
<path opacity="0.32" d="M0.638458 325.617H-4.54321V330.79H0.638458V325.617Z" fill="white"/>
<path opacity="0.25" d="M7.71997 325.617H2.53833V330.79H7.71997V325.617Z" fill="white"/>
<path opacity="0.12" d="M21.8831 325.617H16.7014V330.79H21.8831V325.617Z" fill="white"/>
<path opacity="0.22" d="M0.638458 332.687H-4.54321V337.86H0.638458V332.687Z" fill="white"/>
<path opacity="0.47" d="M7.71997 332.687H2.53833V337.86H7.71997V332.687Z" fill="white"/>
<path opacity="0.22" d="M14.8015 332.687H9.61993V337.86H14.8015V332.687Z" fill="white"/>
<path opacity="0.32" d="M21.8831 332.687H16.7014V337.86H21.8831V332.687Z" fill="white"/>
<path opacity="0.18" d="M0.638458 339.757H-4.54321V344.931H0.638458V339.757Z" fill="white"/>
<path opacity="0.28" d="M7.71997 339.757H2.53833V344.931H7.71997V339.757Z" fill="white"/>
<path opacity="0.2" d="M21.8831 339.757H16.7014V344.931H21.8831V339.757Z" fill="white"/>
<path opacity="0.33" d="M0.638458 346.827H-4.54321V352.001H0.638458V346.827Z" fill="white"/>
<path opacity="0.05" d="M7.71997 346.827H2.53833V352.001H7.71997V346.827Z" fill="white"/>
<path opacity="0.08" d="M14.8015 346.827H9.61993V352.001H14.8015V346.827Z" fill="white"/>
<path opacity="0.08" d="M7.71997 353.898H2.53833V359.071H7.71997V353.898Z" fill="white"/>
<path opacity="0.02" d="M14.8015 353.898H9.61993V359.071H14.8015V353.898Z" fill="white"/>
<path opacity="0.05" d="M0.638458 360.968H-4.54321V366.141H0.638458V360.968Z" fill="white"/>
<path opacity="0.2" d="M7.71997 360.968H2.53833V366.141H7.71997V360.968Z" fill="white"/>
<path opacity="0.23" d="M14.8015 360.968H9.61993V366.141H14.8015V360.968Z" fill="white"/>
<path opacity="0.14" d="M0.638458 368.038H-4.54321V373.212H0.638458V368.038Z" fill="white"/>
<path opacity="0.24" d="M14.8015 368.038H9.61993V373.212H14.8015V368.038Z" fill="white"/>
<path opacity="0.23" d="M0.638458 375.108H-4.54321V380.281H0.638458V375.108Z" fill="white"/>
<path opacity="0.02" d="M7.71997 375.108H2.53833V380.281H7.71997V375.108Z" fill="white"/>
<path opacity="0.04" d="M14.8015 375.108H9.61993V380.281H14.8015V375.108Z" fill="white"/>
<path opacity="0.3" d="M21.8831 375.108H16.7014V380.281H21.8831V375.108Z" fill="white"/>
<path opacity="0.4" d="M21.8831 382.006H16.7014V387.18H21.8831V382.006Z" fill="white"/>
<path opacity="0.12" d="M0.638458 389.076H-4.54321V394.25H0.638458V389.076Z" fill="white"/>
<path opacity="0.19" d="M14.8015 389.076H9.61993V394.25H14.8015V389.076Z" fill="white"/>
<path opacity="0.43" d="M21.8831 389.076H16.7014V394.25H21.8831V389.076Z" fill="white"/>
<path opacity="0.42" d="M7.71997 396.146H2.53833V401.32H7.71997V396.146Z" fill="white"/>
<path opacity="0.31" d="M21.8831 396.146H16.7014V401.32H21.8831V396.146Z" fill="white"/>
<path opacity="0.31" d="M7.71997 403.217H2.53833V408.39H7.71997V403.217Z" fill="white"/>
<path opacity="0.33" d="M21.8831 403.217H16.7014V408.39H21.8831V403.217Z" fill="white"/>
<path opacity="0.17" d="M7.71997 410.287H2.53833V415.46H7.71997V410.287Z" fill="white"/>
<path opacity="0.01" d="M14.8015 410.287H9.61993V415.46H14.8015V410.287Z" fill="white"/>
<path opacity="0.48" d="M21.8831 410.287H16.7014V415.46H21.8831V410.287Z" fill="white"/>
<path opacity="0.28" d="M0.638458 417.357H-4.54321V422.53H0.638458V417.357Z" fill="white"/>
<path opacity="0.02" d="M7.71997 417.357H2.53833V422.53H7.71997V417.357Z" fill="white"/>
<path opacity="0.17" d="M14.8015 417.357H9.61993V422.53H14.8015V417.357Z" fill="white"/>
<path opacity="0.42" d="M21.8831 417.357H16.7014V422.53H21.8831V417.357Z" fill="white"/>
<path opacity="0.11" d="M0.638458 424.427H-4.54321V429.601H0.638458V424.427Z" fill="white"/>
<path opacity="0.02" d="M7.71997 424.427H2.53833V429.601H7.71997V424.427Z" fill="white"/>
<path opacity="0.3" d="M21.8831 424.427H16.7014V429.601H21.8831V424.427Z" fill="white"/>
<path opacity="0.19" d="M0.638458 431.498H-4.54321V436.671H0.638458V431.498Z" fill="white"/>
<path opacity="0.05" d="M7.71997 431.498H2.53833V436.671H7.71997V431.498Z" fill="white"/>
<path opacity="0.2" d="M21.8831 431.498H16.7014V436.671H21.8831V431.498Z" fill="white"/>
<path opacity="0.27" d="M7.71997 438.568H2.53833V443.741H7.71997V438.568Z" fill="white"/>
<path opacity="0.13" d="M14.8015 438.568H9.61993V443.741H14.8015V438.568Z" fill="white"/>
<path opacity="0.46" d="M0.638458 445.638H-4.54321V450.811H0.638458V445.638Z" fill="white"/>
<path opacity="0.12" d="M7.71997 445.638H2.53833V450.811H7.71997V445.638Z" fill="white"/>
<path opacity="0.04" d="M14.8015 445.638H9.61993V450.811H14.8015V445.638Z" fill="white"/>
<path opacity="0.3" d="M21.8831 445.638H16.7014V450.811H21.8831V445.638Z" fill="white"/>
<path opacity="0.08" d="M14.8015 325.617H9.61993V330.79H14.8015V325.617Z" fill="white"/>
<path opacity="0.08" d="M14.8015 339.757H9.61993V344.931H14.8015V339.757Z" fill="white"/>
<path opacity="0.01" d="M21.8831 346.827H16.7014V352.001H21.8831V346.827Z" fill="white"/>
<path opacity="0.15" d="M0.638458 353.898H-4.54321V359.071H0.638458V353.898Z" fill="white"/>
<path opacity="0.12" d="M21.8831 353.898H16.7014V359.071H21.8831V353.898Z" fill="white"/>
<path opacity="0.13" d="M7.71997 368.038H2.53833V373.212H7.71997V368.038Z" fill="white"/>
<path opacity="0.07" d="M21.8831 368.038H16.7014V373.212H21.8831V368.038Z" fill="white"/>
<path opacity="0.02" d="M0.638458 382.006H-4.54321V387.18H0.638458V382.006Z" fill="white"/>
<path opacity="0.02" d="M7.71997 382.006H2.53833V387.18H7.71997V382.006Z" fill="white"/>
<path opacity="0.14" d="M14.8015 382.006H9.61993V387.18H14.8015V382.006Z" fill="white"/>
<path opacity="0.09" d="M0.638458 396.146H-4.54321V401.32H0.638458V396.146Z" fill="white"/>
<path opacity="0.02" d="M14.8015 396.146H9.61993V401.32H14.8015V396.146Z" fill="white"/>
<path opacity="0.19" d="M0.638458 403.217H-4.54321V408.39H0.638458V403.217Z" fill="white"/>
<path opacity="0.06" d="M14.8015 403.217H9.61993V408.39H14.8015V403.217Z" fill="white"/>
<path opacity="0.16" d="M0.638458 410.287H-4.54321V415.46H0.638458V410.287Z" fill="white"/>
<path opacity="0.04" d="M14.8015 424.427H9.61993V429.601H14.8015V424.427Z" fill="white"/>
<path opacity="0.04" d="M14.8015 431.498H9.61993V436.671H14.8015V431.498Z" fill="white"/>
<path opacity="0.18" d="M21.8831 438.568H16.7014V443.741H21.8831V438.568Z" fill="white"/>
<g opacity="0.7">
<path opacity="0.7" d="M36.2188 322.685H30.8645V449.777H36.2188V322.685Z" fill="#E6E6E6"/>
<path opacity="0.7" d="M45.373 322.685H40.0187V449.777H45.373V322.685Z" fill="#E6E6E6"/>
<path opacity="0.7" d="M54.6999 322.685H49.3456V449.777H54.6999V322.685Z" fill="#E6E6E6"/>
<path opacity="0.7" d="M64.0268 322.685H58.6725V449.777H64.0268V322.685Z" fill="#E6E6E6"/>
<path opacity="0.7" d="M73.3537 322.685H67.9994V449.777H73.3537V322.685Z" fill="#E6E6E6"/>
</g>
<path d="M108.416 449.777H0.983887L108.416 356.312V449.777Z" fill="#333333"/>
<path d="M99.2618 433.222H62.2997V453.915H99.2618V433.222Z" fill="#4D4D4D"/>
<path d="M96.4983 428.394H65.0632V438.051H96.4983V428.394Z" fill="#4D4D4D"/>
<path d="M92.8712 431.325H68.5176L76.9809 417.185H84.4078L92.8712 431.325Z" fill="#4D4D4D"/>
<path d="M89.4168 437.361H72.1448V449.949H89.4168V437.361Z" fill="white"/>
<path d="M91.4893 442.362H70.072V444.948H91.4893V442.362Z" fill="#4D4D4D"/>
<path d="M264.21 467.194C264.728 480.644 254.365 492.198 240.72 492.715C227.248 493.233 215.675 482.714 215.157 469.263C214.639 455.812 225.002 444.259 238.647 443.741C252.119 443.224 263.519 453.743 264.21 467.194Z" fill="#333333"/>
<path d="M260.064 460.468C260.41 468.228 254.365 474.781 246.592 475.126C238.82 475.471 232.257 469.435 231.911 461.675C231.566 453.915 237.611 447.362 245.383 447.017C253.156 446.673 259.719 452.708 260.064 460.468Z" fill="#4D4D4D"/>
<path d="M17.5651 441.844C17.5651 445.121 14.8015 447.88 11.5198 447.88C8.23814 447.88 5.47461 445.121 5.47461 441.844C5.47461 438.568 8.23814 435.809 11.5198 435.809C14.8015 435.809 17.5651 438.396 17.5651 441.844Z" fill="#333333"/>
<path d="M19.6377 447.88C19.6377 452.364 16.0106 455.985 11.5198 455.985C7.02912 455.985 3.40198 452.364 3.40198 447.88C3.40198 443.396 7.02912 439.775 11.5198 439.775C16.0106 439.775 19.6377 443.396 19.6377 447.88Z" fill="#333333"/>
<path d="M15.4924 436.671C15.4924 438.913 13.7652 440.81 11.5199 440.81C9.27451 440.81 7.5473 438.913 7.5473 436.671C7.5473 434.429 9.27451 432.532 11.5199 432.532C13.7652 432.532 15.4924 434.429 15.4924 436.671Z" fill="#333333"/>
<path d="M16.7014 441.844C16.7014 443.741 15.147 445.293 13.2471 445.293C11.3471 445.293 9.79266 443.741 9.79266 441.844C9.79266 439.947 11.3471 438.396 13.2471 438.396C15.147 438.396 16.7014 439.947 16.7014 441.844Z" fill="#4D4D4D"/>
<path d="M14.9742 437.188C14.9742 438.568 13.7652 439.775 12.3835 439.775C11.0017 439.775 9.79266 438.568 9.79266 437.188C9.79266 435.809 11.0017 434.602 12.3835 434.602C13.7652 434.429 14.9742 435.636 14.9742 437.188Z" fill="#4D4D4D"/>
<path d="M132.77 454.433C132.77 458.744 129.142 462.365 124.824 462.365C120.506 462.365 116.879 458.744 116.879 454.433C116.879 450.121 120.334 446.5 124.824 446.5C129.142 446.5 132.77 450.121 132.77 454.433Z" fill="#333333"/>
<path d="M130.006 447.707C130.006 450.639 127.761 453.053 124.824 453.053C121.888 453.053 119.643 450.639 119.643 447.707C119.643 444.776 121.888 442.362 124.824 442.362C127.588 442.362 130.006 444.776 130.006 447.707Z" fill="#333333"/>
<path d="M129.315 448.225C129.315 450.121 127.761 451.673 125.861 451.673C123.961 451.673 122.406 450.121 122.406 448.225C122.406 446.328 123.961 444.776 125.861 444.776C127.761 444.776 129.315 446.328 129.315 448.225Z" fill="#4D4D4D"/>
<path d="M122.061 460.296C121.197 468.573 113.77 474.436 105.653 473.574C97.3619 472.712 91.4894 465.297 92.353 457.192C93.2166 448.915 100.644 443.052 108.761 443.914C116.879 444.776 122.925 452.019 122.061 460.296Z" fill="#333333"/>
<path d="M118.261 447.018C117.743 452.536 112.907 456.675 107.38 456.157C102.025 455.64 98.0527 450.639 98.5709 445.121C99.0891 439.603 103.925 435.464 109.452 435.981C114.979 436.499 118.779 441.5 118.261 447.018Z" fill="#333333"/>
<path d="M116.879 448.052C116.534 451.674 113.252 454.26 109.798 453.916C106.171 453.571 103.58 450.294 103.925 446.845C104.271 443.224 107.552 440.637 111.007 440.982C114.634 441.327 117.225 444.604 116.879 448.052Z" fill="#4D4D4D"/>
<path d="M200.303 453.053C200.303 460.641 194.258 466.676 186.658 466.676C179.058 466.676 173.013 460.641 173.013 453.053C173.013 445.466 179.058 439.43 186.658 439.43C194.085 439.43 200.303 445.466 200.303 453.053Z" fill="#333333"/>
<path d="M195.467 441.327C195.467 446.5 191.494 450.639 186.486 450.639C181.477 450.639 177.504 446.5 177.504 441.327C177.504 436.154 181.477 432.015 186.486 432.015C191.494 432.187 195.467 436.326 195.467 441.327Z" fill="#333333"/>
<path d="M198.231 453.053C198.231 457.364 194.776 460.986 190.285 460.986C185.967 460.986 182.34 457.537 182.34 453.053C182.34 448.742 185.795 445.121 190.285 445.121C194.603 445.293 198.231 448.742 198.231 453.053Z" fill="#4D4D4D"/>
<path d="M194.258 442.534C194.258 445.81 191.667 448.57 188.213 448.57C184.931 448.57 182.168 445.983 182.168 442.534C182.168 439.258 184.758 436.671 188.213 436.671C191.667 436.498 194.258 439.258 194.258 442.534Z" fill="#4D4D4D"/>
<path d="M170.077 464.434C170.077 474.091 162.132 482.024 152.46 482.024C142.787 482.024 134.842 474.091 134.842 464.434C134.842 454.777 142.787 446.845 152.46 446.845C162.132 446.845 170.077 454.605 170.077 464.434Z" fill="#333333"/>
<path d="M164.032 449.259C164.032 455.812 158.85 461.158 152.46 461.158C146.069 461.158 140.887 455.812 140.887 449.259C140.887 442.706 146.069 437.361 152.46 437.361C158.85 437.361 164.032 442.706 164.032 449.259Z" fill="#333333"/>
<path d="M162.477 450.811C162.477 455.122 159.023 458.399 154.705 458.399C150.387 458.399 146.932 454.95 146.932 450.811C146.932 446.5 150.387 443.051 154.705 443.051C159.023 443.051 162.477 446.5 162.477 450.811Z" fill="#4D4D4D"/>
<path d="M212.739 451.329C212.739 453.398 211.185 454.95 209.285 454.95C207.385 454.95 205.83 453.398 205.83 451.329C205.83 449.259 207.385 447.707 209.285 447.707C211.185 447.707 212.739 449.259 212.739 451.329Z" fill="#333333"/>
<path d="M287.009 447.018C287.009 453.743 281.654 459.089 274.918 459.089C268.182 459.089 262.828 453.743 262.828 447.018C262.828 440.292 268.182 434.947 274.918 434.947C281.654 434.947 287.009 440.292 287.009 447.018Z" fill="#333333"/>
<path d="M291.154 459.089C291.154 468.056 283.9 475.299 274.918 475.299C265.937 475.299 258.683 468.056 258.683 459.089C258.683 450.122 265.937 442.879 274.918 442.879C283.9 442.879 291.154 450.122 291.154 459.089Z" fill="#333333"/>
<path d="M282.864 436.671C282.864 441.155 279.236 444.948 274.918 444.948C270.6 444.948 266.973 441.327 266.973 436.671C266.973 432.188 270.6 428.394 274.918 428.394C279.236 428.394 282.864 432.188 282.864 436.671Z" fill="#333333"/>
<path d="M285.109 447.018C285.109 450.812 282 453.916 278.2 453.916C274.4 453.916 271.291 450.812 271.291 447.018C271.291 443.224 274.4 440.12 278.2 440.12C282 440.12 285.109 443.224 285.109 447.018Z" fill="#4D4D4D"/>
<path d="M281.827 437.706C281.827 440.637 279.409 443.052 276.473 443.052C273.537 443.052 271.119 440.637 271.119 437.706C271.119 434.774 273.537 432.36 276.473 432.36C279.409 432.36 281.827 434.774 281.827 437.706Z" fill="#4D4D4D"/>
<path d="M332.089 462.193C332.089 471.16 324.835 478.403 315.853 478.403C306.872 478.403 299.617 471.16 299.617 462.193C299.617 453.226 306.872 445.983 315.853 445.983C324.835 446.156 332.089 453.398 332.089 462.193Z" fill="#333333"/>
<path d="M326.389 448.397C326.389 454.433 321.553 459.434 315.853 459.434C309.98 459.434 305.144 454.605 305.144 448.397C305.144 442.362 309.98 437.533 315.853 437.533C321.725 437.533 326.389 442.362 326.389 448.397Z" fill="#333333"/>
<path d="M325.007 449.777C325.007 453.743 321.898 456.847 317.926 456.847C313.953 456.847 310.844 453.743 310.844 449.777C310.844 445.811 313.953 442.707 317.926 442.707C321.898 442.707 325.007 445.811 325.007 449.777Z" fill="#4D4D4D"/>
<path d="M596.351 468.746C596.351 483.576 584.433 495.475 569.579 495.475C554.725 495.475 542.807 483.576 542.807 468.746C542.807 453.916 554.725 442.017 569.579 442.017C584.433 442.017 596.351 454.088 596.351 468.746Z" fill="#333333"/>
<path d="M592.378 461.331C592.378 469.781 585.469 476.678 577.006 476.678C568.543 476.678 561.634 469.781 561.634 461.331C561.634 452.881 568.543 445.983 577.006 445.983C585.469 445.983 592.378 452.881 592.378 461.331Z" fill="#4D4D4D"/>
<path d="M630.722 457.192C630.722 469.608 620.532 479.782 608.096 479.782C595.66 479.782 585.469 469.608 585.469 457.192C585.469 444.776 595.66 434.602 608.096 434.602C620.704 434.602 630.722 444.604 630.722 457.192Z" fill="#333333"/>
<path d="M627.268 450.812C627.268 458.054 621.395 463.745 614.314 463.745C607.059 463.745 601.36 457.882 601.36 450.812C601.36 443.741 607.232 437.878 614.314 437.878C621.395 437.878 627.268 443.741 627.268 450.812Z" fill="#4D4D4D"/>
<path d="M573.034 460.813C573.034 473.229 562.843 483.404 550.407 483.404C537.971 483.404 527.781 473.229 527.781 460.813C527.781 448.397 537.971 438.223 550.407 438.223C563.016 438.223 573.034 448.225 573.034 460.813Z" fill="#333333"/>
<path d="M569.579 454.433C569.579 461.675 563.707 467.366 556.625 467.366C549.544 467.366 543.671 461.503 543.671 454.433C543.671 447.19 549.544 441.5 556.625 441.5C563.707 441.5 569.579 447.19 569.579 454.433Z" fill="#4D4D4D"/>
<path d="M503.255 465.987C503.255 478.403 493.064 488.577 480.628 488.577C468.192 488.577 458.002 478.403 458.002 465.987C458.002 453.571 468.192 443.397 480.628 443.397C493.237 443.397 503.255 453.571 503.255 465.987Z" fill="#333333"/>
<path d="M499.8 459.607C499.8 466.849 493.928 472.54 486.846 472.54C479.592 472.54 473.892 466.677 473.892 459.607C473.892 452.364 479.765 446.673 486.846 446.673C493.928 446.673 499.8 452.536 499.8 459.607Z" fill="#4D4D4D"/>
<path d="M475.965 462.193C475.965 474.609 465.774 484.783 453.338 484.783C440.902 484.783 430.712 474.609 430.712 462.193C430.712 449.777 440.902 439.603 453.338 439.603C465.774 439.603 475.965 449.605 475.965 462.193Z" fill="#333333"/>
<path d="M472.51 455.813C472.51 463.055 466.638 468.746 459.556 468.746C452.302 468.746 446.602 462.883 446.602 455.813C446.602 448.57 452.475 442.879 459.556 442.879C466.638 442.879 472.51 448.57 472.51 455.813Z" fill="#4D4D4D"/>
<path d="M493.582 458.571C493.582 465.814 487.71 471.505 480.628 471.505C473.374 471.505 467.674 465.641 467.674 458.571C467.674 451.329 473.547 445.638 480.628 445.638C487.882 445.638 493.582 451.501 493.582 458.571Z" fill="#4D4D4D"/>
<path d="M397.032 459.606C397.032 467.711 390.468 474.436 382.178 474.436C374.06 474.436 367.324 467.883 367.324 459.606C367.324 451.501 373.887 444.776 382.178 444.776C390.468 444.948 397.032 451.501 397.032 459.606Z" fill="#333333"/>
<path d="M394.786 455.467C394.786 460.123 390.986 463.917 386.323 463.917C381.66 463.917 377.86 460.123 377.86 455.467C377.86 450.811 381.66 447.017 386.323 447.017C390.986 447.017 394.786 450.811 394.786 455.467Z" fill="#4D4D4D"/>
<path d="M8.92905 447.88C8.92905 454.778 3.40198 460.296 -3.50683 460.296C-10.4156 460.296 -15.9427 454.778 -15.9427 447.88C-15.9427 440.982 -10.4156 435.464 -3.50683 435.464C3.22926 435.291 8.92905 440.982 8.92905 447.88Z" fill="#333333"/>
<path d="M13.0743 460.296C13.0743 469.608 5.64736 477.023 -3.67952 477.023C-13.0064 477.023 -20.4333 469.608 -20.4333 460.296C-20.4333 450.984 -13.0064 443.569 -3.67952 443.569C5.64736 443.569 13.0743 450.984 13.0743 460.296Z" fill="#333333"/>
<path d="M4.61105 437.188C4.61105 441.844 0.983925 445.638 -3.67952 445.638C-8.17024 445.638 -11.9701 441.844 -11.9701 437.188C-11.9701 432.532 -8.34296 428.739 -3.67952 428.739C0.983925 428.739 4.61105 432.532 4.61105 437.188Z" fill="#333333"/>
<path d="M7.02902 447.88C7.02902 451.846 3.74734 455.122 -0.225235 455.122C-4.19781 455.122 -7.47949 451.846 -7.47949 447.88C-7.47949 443.913 -4.19781 440.637 -0.225235 440.637C3.74734 440.637 7.02902 443.913 7.02902 447.88Z" fill="#4D4D4D"/>
<path d="M3.57465 438.223C3.57465 441.155 1.15656 443.741 -1.95242 443.741C-4.88868 443.741 -7.47949 441.327 -7.47949 438.223C-7.47949 435.292 -5.0614 432.705 -1.95242 432.705C0.983835 432.705 3.57465 435.119 3.57465 438.223Z" fill="#4D4D4D"/>
<path d="M67.8267 452.709C67.8267 458.227 63.336 462.711 57.8089 462.711C52.2818 462.711 47.7911 458.227 47.7911 452.709C47.7911 447.19 52.2818 442.707 57.8089 442.707C63.336 442.707 67.8267 447.19 67.8267 452.709Z" fill="#333333"/>
<path d="M64.3723 444.086C64.3723 447.88 61.436 450.984 57.8089 450.984C54.1817 450.984 51.2455 447.88 51.2455 444.086C51.2455 440.293 54.1817 437.189 57.8089 437.189C61.436 437.361 64.3723 440.293 64.3723 444.086Z" fill="#333333"/>
<path d="M66.2722 452.709C66.2722 455.985 63.6814 458.572 60.3997 458.572C57.118 458.572 54.5272 455.985 54.5272 452.709C54.5272 449.605 57.118 447.018 60.3997 447.018C63.6814 446.845 66.2722 449.432 66.2722 452.709Z" fill="#4D4D4D"/>
<path d="M63.5087 444.949C63.5087 447.363 61.6088 449.26 59.1907 449.26C56.7726 449.26 54.8727 447.363 54.8727 444.949C54.8727 442.534 56.7726 440.638 59.1907 440.638C61.6088 440.465 63.5087 442.534 63.5087 444.949Z" fill="#4D4D4D"/>
</svg>
